<svg xmlns="http://www.w3.org/2000/svg" version="1.1" xmlns:xlink="http://www.w3.org/1999/xlink" xmlns:svgjs="http://svgjs.dev/svgjs" width="1000" height="1000" viewBox="0 0 1000 1000"><rect width="1000" height="1000" fill="#ffffff"></rect><g transform="matrix(0.7,0,0,0.7,149.57575757575756,308.34852200422625)"><svg viewBox="0 0 396 217" data-background-color="#fafafa" preserveAspectRatio="xMidYMid meet" height="547" width="1000" xmlns="http://www.w3.org/2000/svg" xmlns:xlink="http://www.w3.org/1999/xlink"><g id="tight-bounds" transform="matrix(1,0,0,1,0.2400000000000091,0.11418314202899182)"><svg viewBox="0 0 395.52 216.77163371594202" height="216.77163371594202" width="395.52"><g><svg viewBox="0 0 395.52 216.77163371594202" height="216.77163371594202" width="395.52"><g transform="matrix(1,0,0,1,0,133.97356608309178)"><svg viewBox="0 0 395.52 82.79806763285023" height="82.79806763285023" width="395.52"><g id="textblocktransform"><svg viewBox="0 0 395.52 82.79806763285023" height="82.79806763285023" width="395.52" id="textblock"><g><svg viewBox="0 0 395.52 82.79806763285023" height="82.79806763285023" width="395.52"><g transform="matrix(1,0,0,1,0,0)"><svg width="395.52" viewBox="3.85 -35.9 217.33 45.5" height="82.79806763285023" data-palette-color="#130912"><path d="M22.65-3.55L22.65 0 3.85 0 3.85-33.7 22.4-33.7 22.4-30.15 7.9-30.15 7.9-18.6 20.7-18.6 20.7-15.05 7.9-15.05 7.9-3.55 22.65-3.55ZM48.7-17.45L48.7 0 44.75 0 44.75-16.4Q44.75-19.2 43.32-20.68 41.9-22.15 39.6-22.15L39.6-22.15Q36.75-22.15 34.67-19.95 32.6-17.75 32.6-13.85L32.6-13.85 32.6 0 28.7 0 28.7-25.35 32.6-25.35 32.6-20.95Q34.85-25.7 40.6-25.7L40.6-25.7Q44.3-25.7 46.5-23.45 48.7-21.2 48.7-17.45L48.7-17.45ZM76.15-25.35L76.15-2.05Q76.15 3.75 72.95 6.68 69.75 9.6 64.7 9.6L64.7 9.6Q60.09 9.6 56.84 8.05L56.84 8.05 56.84 4.1Q60.05 5.95 64.34 5.95L64.34 5.95Q68 5.95 70.09 4 72.2 2.05 72.2-2.1L72.2-2.1 72.2-4.95Q69.7-0.65 64.75-0.65L64.75-0.65Q60.4-0.65 57.32-3.85 54.25-7.05 54.25-12.75L54.25-12.75Q54.25-18.4 57.09-22.05 59.95-25.7 64.55-25.7L64.55-25.7Q69.75-25.7 72.2-21.15L72.2-21.15 72.2-25.35 76.15-25.35ZM58.34-12.85L58.34-12.85Q58.34-8.6 60.45-6.38 62.55-4.15 65.2-4.15L65.2-4.15Q67.95-4.15 70.07-6.28 72.2-8.4 72.2-12.6L72.2-12.6Q72.2-17.45 70.15-19.8 68.09-22.15 65.4-22.15L65.4-22.15Q62.15-22.15 60.25-19.58 58.34-17 58.34-12.85ZM87.29-25.35L87.29 0 83.34 0 83.34-25.35 87.29-25.35ZM87.14-35.15Q87.89-34.4 87.89-33.3 87.89-32.2 87.14-31.48 86.39-30.75 85.29-30.75 84.19-30.75 83.47-31.48 82.74-32.2 82.74-33.3 82.74-34.4 83.47-35.15 84.19-35.9 85.29-35.9 86.39-35.9 87.14-35.15ZM114.79-17.45L114.79 0 110.84 0 110.84-16.4Q110.84-19.2 109.42-20.68 107.99-22.15 105.69-22.15L105.69-22.15Q102.84-22.15 100.77-19.95 98.69-17.75 98.69-13.85L98.69-13.85 98.69 0 94.79 0 94.79-25.35 98.69-25.35 98.69-20.95Q100.94-25.7 106.69-25.7L106.69-25.7Q110.39-25.7 112.59-23.45 114.79-21.2 114.79-17.45L114.79-17.45ZM140.29-5L140.29-1.3Q137.34 0.25 133.09 0.25L133.09 0.25Q127.34 0.25 123.81-3.28 120.29-6.8 120.29-12.6L120.29-12.6Q120.29-18.65 123.44-22.15 126.59-25.65 131.54-25.65L131.54-25.65Q136.29-25.65 139.09-22.6 141.89-19.55 141.89-13.95L141.89-13.95Q141.89-12.35 141.64-11L141.64-11 124.34-11Q124.79-7.25 127.19-5.25 129.59-3.25 133.49-3.25L133.49-3.25Q137.74-3.25 140.29-5L140.29-5ZM131.54-22.2L131.54-22.2Q128.69-22.2 126.69-20.15 124.69-18.1 124.34-14.3L124.34-14.3 137.94-14.3 137.94-15.3Q137.94-18.45 136.24-20.33 134.54-22.2 131.54-22.2ZM160.39 0L160.39 0 148.09 0 148.09-33.7 158.24-33.7Q163.44-33.7 166.56-31.3 169.69-28.9 169.69-24.85L169.69-24.85Q169.69-21.95 168.06-19.83 166.44-17.7 163.89-17.15L163.89-17.15Q166.69-16.7 168.66-14.63 170.64-12.55 170.64-9L170.64-9Q170.64-4.95 167.96-2.48 165.29 0 160.39 0ZM158.24-30.25L158.24-30.25 152.14-30.25 152.14-18.75 157.54-18.75Q161.59-18.75 163.54-20.45 165.49-22.15 165.49-24.85L165.49-24.85Q165.49-27.2 163.66-28.73 161.84-30.25 158.24-30.25ZM159.04-15.3L159.04-15.3 152.14-15.3 152.14-3.45 159.79-3.45Q162.99-3.45 164.71-4.93 166.44-6.4 166.44-9.25 166.44-12.1 164.51-13.7 162.59-15.3 159.04-15.3ZM184.18-3.05L184.18-3.05Q186.88-3.05 188.48-4.58 190.08-6.1 190.08-8.45L190.08-8.45 190.08-11.7 185.68-11.7Q182.48-11.7 180.88-10.45 179.28-9.2 179.28-7.3 179.28-5.4 180.53-4.23 181.78-3.05 184.18-3.05ZM190.13 0L190.13-3Q188.18 0.25 183.03 0.25L183.03 0.25Q179.48 0.25 177.31-1.85 175.13-3.95 175.13-7.15L175.13-7.15Q175.13-10.8 177.91-12.83 180.68-14.85 185.48-14.85L185.48-14.85 190.08-14.85 190.08-16.15Q190.08-19.15 188.73-20.68 187.38-22.2 184.18-22.2L184.18-22.2Q180.13-22.2 176.98-20.05L176.98-20.05 176.98-24Q179.83-25.75 184.48-25.75L184.48-25.75Q194.03-25.75 194.03-16.05L194.03-16.05 194.03 0 190.13 0ZM221.18-25.35L212.03-0.65Q210.08 4.5 207.41 6.6 204.73 8.7 201.28 8.7L201.28 8.7Q199.98 8.7 199.18 8.45L199.18 8.45 199.18 4.9Q199.93 5.1 200.88 5.1L200.88 5.1Q205.93 5.1 208.03-0.65L208.03-0.65 197.78-25.35 202.23-25.35 205.53-17 209.98-5.5Q210.38-6.8 213.98-17L213.98-17 216.93-25.35 221.18-25.35Z" opacity="1" transform="matrix(1,0,0,1,0,0)" fill="#000000" class="wordmark-text-0" data-fill-palette-color="primary" id="text-0"></path></svg></g></svg></g></svg></g></svg></g><g transform="matrix(1,0,0,1,140.5465352657005,0)"><svg viewBox="0 0 114.42692946859897 114.42692946859903" height="114.42692946859903" width="114.42692946859897"><g><svg xmlns="http://www.w3.org/2000/svg" xmlns:xlink="http://www.w3.org/1999/xlink" version="1.1" x="0" y="0" viewBox="14.128 14.128 71.744 71.74400000000003" enable-background="new 0 0 100 100" xml:space="preserve" height="114.42692946859903" width="114.42692946859897" class="icon-icon-0" data-fill-palette-color="accent" id="icon-0"><path d="M49.997 62.372c0.001 0 0.002 0 0.002 0 3.307 0 6.413-1.287 8.749-3.624 2.337-2.336 3.623-5.442 3.623-8.748s-1.286-6.412-3.623-8.748c-2.336-2.337-5.442-3.624-8.748-3.624h-0.001c-3.305 0-6.411 1.287-8.747 3.624-2.337 2.336-3.624 5.442-3.625 8.748s1.286 6.413 3.623 8.75C43.586 61.086 46.691 62.372 49.997 62.372zM44.08 44.08c1.581-1.581 3.684-2.452 5.919-2.452 2.237 0 4.34 0.871 5.921 2.452s2.451 3.683 2.451 5.92-0.87 4.339-2.451 5.92-3.684 2.452-5.921 2.452c-0.001 0-0.001 0-0.002 0-2.237 0-4.339-0.87-5.919-2.45-1.581-1.581-2.452-3.684-2.451-5.921S42.499 45.661 44.08 44.08z" fill="#000000" data-fill-palette-color="accent"></path><path d="M61.376 35.796c-0.781 0.781-0.781 2.047 0 2.828 6.272 6.272 6.272 16.479 0 22.751-6.274 6.273-16.481 6.274-22.754 0.003-0.781-0.781-2.047-0.781-2.828 0s-0.781 2.047 0 2.828c3.915 3.915 9.059 5.873 14.202 5.873 5.145 0 10.291-1.959 14.208-5.876 7.832-7.832 7.832-20.575 0-28.407C63.423 35.015 62.157 35.015 61.376 35.796z" fill="#000000" data-fill-palette-color="accent"></path><path d="M83.872 41.713l-7.568-0.002c-0.484-1.543-1.101-3.032-1.842-4.454l5.349-5.349c0.781-0.781 0.781-2.047 0-2.828l-8.891-8.891c-0.781-0.781-2.047-0.781-2.828 0l-5.349 5.349c-1.423-0.742-2.914-1.358-4.456-1.842l-0.001-7.568c0-0.53-0.211-1.039-0.586-1.414s-0.884-0.586-1.414-0.586L43.711 14.13c-1.104 0-2 0.896-2 2v7.566c-1.541 0.483-3.031 1.099-4.454 1.841l-5.349-5.348c-0.781-0.781-2.047-0.781-2.828 0l-8.891 8.891c-0.781 0.781-0.781 2.047 0 2.828l5.348 5.349c-0.744 1.426-1.36 2.916-1.843 4.454l-7.566 0.002c-1.104 0-2 0.896-2 2v12.574c0 1.104 0.896 2 2 2l7.568 0.002c0.483 1.541 1.099 3.031 1.84 4.455l-5.347 5.348c-0.781 0.781-0.781 2.047 0 2.828l8.891 8.891c0.781 0.781 2.047 0.781 2.828 0l5.348-5.347c1.427 0.743 2.917 1.359 4.457 1.842v7.566c0 1.104 0.896 2 2 2h12.573c1.104 0 2-0.896 2-1.999l0.003-7.567c1.536-0.481 3.026-1.098 4.454-1.844l5.349 5.349c0.781 0.781 2.047 0.781 2.828 0l8.891-8.891c0.781-0.781 0.781-2.047 0-2.828l-5.349-5.349c0.741-1.422 1.357-2.911 1.842-4.454l7.568-0.002c1.104 0 2-0.896 2-2V43.713C85.872 42.608 84.977 41.713 83.872 41.713zM81.872 54.287l-7.08 0.002c-0.916 0-1.715 0.622-1.938 1.51-0.562 2.221-1.434 4.328-2.591 6.262-0.471 0.787-0.347 1.793 0.302 2.441l5.004 5.004-6.062 6.062-5.004-5.004c-0.647-0.647-1.653-0.773-2.44-0.303-1.949 1.166-4.056 2.037-6.259 2.591-0.89 0.223-1.514 1.021-1.514 1.938l-0.002 7.081h-8.574v-7.078c0-0.916-0.622-1.715-1.511-1.939-2.213-0.559-4.321-1.43-6.268-2.591-0.788-0.469-1.791-0.345-2.438 0.304l-5.002 5.001-6.062-6.062 5.001-5.002c0.647-0.647 0.772-1.652 0.304-2.438-1.157-1.94-2.028-4.049-2.59-6.267-0.224-0.888-1.022-1.51-1.938-1.51l-7.08-0.002v-8.574l7.08-0.002c0.917 0 1.716-0.623 1.939-1.513 0.556-2.208 1.427-4.314 2.59-6.26 0.47-0.787 0.346-1.792-0.303-2.44l-5.003-5.004 6.062-6.062 5.003 5.003c0.647 0.647 1.651 0.774 2.44 0.303 1.939-1.159 4.047-2.031 6.263-2.59 0.889-0.225 1.511-1.023 1.511-1.939V18.13l8.575-0.002 0.001 7.081c0 0.916 0.622 1.715 1.511 1.939 2.219 0.56 4.326 1.431 6.264 2.59 0.787 0.471 1.793 0.347 2.44-0.303l5.004-5.004 6.062 6.062-5.004 5.004c-0.648 0.648-0.772 1.654-0.302 2.441 1.157 1.934 2.028 4.041 2.591 6.262 0.224 0.888 1.022 1.51 1.938 1.51l7.08 0.002V54.287z" fill="#000000" data-fill-palette-color="accent"></path></svg></g></svg></g><g></g></svg></g><defs></defs></svg><rect width="395.52" height="216.77163371594202" fill="none" stroke="none" visibility="hidden"></rect></g></svg></g></svg>